{"asset":{"version":"2.0","generator":"VECTARY"},"nodes":[{"translation":[4.737694495320496,-0.9796073354463066,-0.49433648777304645],"rotation":[-0.7071067811865475,0,0,0.7071067811865476],"scale":[0.001,0.001,0.001],"name":"Layer 1","mesh":0},{"translation":[0,0,0],"rotation":[-0.7071067811865475,0,0,0.7071067811865476],"scale":[0.001,0.001,0.001],"name":"Layer 2","mesh":1}],"meshes":[{"primitives":[{"mode":4,"attributes":{"POSITION":0,"NORMAL":2},"material":0,"indices":1}]},{"primitives":[{"mode":4,"attributes":{"POSITION":3,"NORMAL":5},"material":1,"indices":4}]}],"accessors":[{"bufferView":0,"byteOffset":0,"componentType":5126,"count":23070,"max":[10000000,10000000,10000000],"min":[-10000000,-10000000,-10000000],"type":"VEC3"},{"bufferView":1,"byteOffset":0,"componentType":5125,"count":23070,"max":[23070],"min":[0],"type":"SCALAR"},{"bufferView":2,"byteOffset":0,"componentType":5126,"count":23070,"max":[1,1,1],"min":[-1,-1,-1],"type":"VEC3"},{"bufferView":3,"byteOffset":0,"componentType":5126,"count":5331,"max":[10000000,10000000,10000000],"min":[-10000000,-10000000,-10000000],"type":"VEC3"},{"bufferView":4,"byteOffset":0,"componentType":5125,"count":5331,"max":[5331],"min":[0],"type":"SCALAR"},{"bufferView":5,"byteOffset":0,"componentType":5126,"count":5331,"max":[1,1,1],"min":[-1,-1,-1],"type":"VEC3"}],"bufferViews":[{"buffer":0,"byteOffset":0,"byteLength":276840,"target":34962},{"buffer":0,"byteOffset":276840,"byteLength":92280,"target":34963},{"buffer":0,"byteOffset":369120,"byteLength":276840,"target":34962},{"buffer":0,"byteOffset":645960,"byteLength":63972,"target":34962},{"buffer":0,"byteOffset":709932,"byteLength":21324,"target":34963},{"buffer":0,"byteOffset":731256,"byteLength":63972,"target":34962}],"materials":[{"pbrMetallicRoughness":{"baseColorFactor":[1,0.7803921568627451,0.5294117647058824,1],"roughnessFactor":0.9,"metallicFactor":0.5},"alphaMode":"BLEND","name":""},{"pbrMetallicRoughness":{"baseColorFactor":[1,0.5882352941176471,0.12156862745098039,1],"roughnessFactor":0.9,"metallicFactor":0.5},"alphaMode":"BLEND","name":""}],"scenes":[{"nodes":[0,1],"name":"underwater"}],"buffers":[{"byteLength":795228,"uri":"underwater.bin"}]}